<?xml version="1.0" encoding="utf-8"?>
<!-- Generator: Adobe Illustrator 24.2.0, SVG Export Plug-In . SVG Version: 6.00 Build 0)  -->
<svg version="1.1" id="Layer_1" focusable="false" xmlns="http://www.w3.org/2000/svg" xmlns:xlink="http://www.w3.org/1999/xlink"
	 x="0px" y="0px" viewBox="0 0 30 30" style="enable-background:new 0 0 30 30;" xml:space="preserve">
<style type="text/css">
	.st0{fill:#563D7C;}
	.st1{fill:#FFFFFF;}
</style>
<path class="st0" d="M30,25c0,2.7-2.3,5-5,5H5c-2.8,0-5-2.3-5-5V5c0-2.8,2.2-5,5-5h20c2.7,0,5,2.2,5,5V25z"/>
<path class="st1" d="M8.2,6.5h8.5c1.6,0,2.8,0.4,3.8,1.1s1.4,1.8,1.4,3.3c0,0.9-0.2,1.6-0.6,2.3c-0.4,0.6-1,1.1-1.9,1.5v0
	c1.1,0.2,1.9,0.7,2.5,1.5c0.6,0.8,0.8,1.8,0.8,3c0,0.7-0.1,1.3-0.4,1.9c-0.2,0.6-0.6,1.1-1.2,1.5c-0.5,0.4-1.2,0.8-2,1
	c-0.8,0.3-1.8,0.4-2.9,0.4h-8L8.2,6.5L8.2,6.5z M11.2,13.8h5c0.7,0,1.3-0.2,1.8-0.6c0.5-0.4,0.7-1,0.7-1.8c0-0.9-0.2-1.5-0.7-1.9
	C17.7,9.2,17,9,16.2,9h-5L11.2,13.8L11.2,13.8z M11.2,21.5h5.4c0.9,0,1.7-0.2,2.2-0.7c0.5-0.5,0.8-1.2,0.8-2c0-0.9-0.3-1.5-0.8-2
	c-0.5-0.5-1.2-0.7-2.2-0.7h-5.4V21.5z"/>
</svg>
