<svg xmlns="http://www.w3.org/2000/svg" width="30.986" height="35" viewBox="0 0 30.986 35">
  <g id="_42300-1590787413-contentful-logo-wordmark-dark-1b5def" data-name="42300-1590787413-contentful-logo-wordmark-dark-1b5def" transform="translate(-0.459 -0.322)">
    <g id="Group_2" data-name="Group 2" transform="translate(0.459 0.322)">
      <path id="Path_4" data-name="Path 4" d="M10.992,28.163a9.768,9.768,0,0,1-2.836-6.931,9.667,9.667,0,0,1,2.886-6.906A3.846,3.846,0,1,0,5.615,8.875a17.477,17.477,0,0,0-.074,24.714,3.846,3.846,0,1,0,5.451-5.426Z" transform="translate(-0.459 -3.769)" fill="#ffd85f"/>
      <path id="Path_5" data-name="Path 5" d="M14.531,10.878a9.768,9.768,0,0,1,6.931-2.836,9.667,9.667,0,0,1,6.906,2.886A3.846,3.846,0,1,0,33.819,5.5a17.418,17.418,0,0,0-24.69-.1,3.846,3.846,0,0,0,5.4,5.476Z" transform="translate(-3.949 -0.322)" fill="#3bb4e7"/>
      <path id="Path_6" data-name="Path 6" d="M28.3,44.857a9.768,9.768,0,0,1-6.931,2.836,9.667,9.667,0,0,1-6.906-2.886,3.846,3.846,0,1,0-5.451,5.426,17.447,17.447,0,0,0,24.714.1A3.854,3.854,0,1,0,28.3,44.857Z" transform="translate(-3.907 -20.414)" fill="#ed5c68"/>
      <path id="Path_7" data-name="Path 7" d="M14.51,14.326A3.846,3.846,0,1,1,14.534,8.9,3.856,3.856,0,0,1,14.51,14.326Z" transform="translate(-3.928 -3.769)" fill="#308bc5"/>
      <path id="Path_8" data-name="Path 8" d="M14.372,50.234a3.846,3.846,0,1,1,.025-5.426A3.856,3.856,0,0,1,14.372,50.234Z" transform="translate(-3.864 -20.414)" fill="#d5465f"/>
    </g>
  </g>
</svg>
