<svg xmlns="http://www.w3.org/2000/svg" width="26" height="29" viewBox="0 0 26 29">
  <path id="Subtraction_1" data-name="Subtraction 1" d="M8.928,29H6.23V23.9H4.955V22.562H3.385V21.222H2.257V19.78H1.128v-1.7H0V10.663H1.177v2.472H2.306v1.391H3.434v1.185h2.8V14.474H7.653V13.135H9.468V11.744h1.913V10.405h1.275V1.236h1.619V0H24.381V1.494H26V7.572H19.083V9.014H22.86V10.3H17.808v2.833h2.6v2.576H19.132V14.32H17.808v5.048H16.434v1.391H15.159v1.8H13.883v1.288H15.8V25.24h-3.14V23.9H9.468v.67h-.54v1.185H7.653v1.906H8.928V29ZM15.674,2.06a.865.865,0,0,0-.353.075.9.9,0,0,0-.288.2.954.954,0,0,0-.194.3,1,1,0,0,0,0,.742.954.954,0,0,0,.194.3.9.9,0,0,0,.288.2.871.871,0,0,0,.707,0,.9.9,0,0,0,.288-.2.954.954,0,0,0,.194-.3,1,1,0,0,0,0-.742.954.954,0,0,0-.194-.3.9.9,0,0,0-.288-.2A.865.865,0,0,0,15.674,2.06Z" transform="translate(0 0)" fill="#a5d6a7" opacity="0.86"/>
</svg>
