<?xml version="1.0" encoding="utf-8"?>
<!-- Generator: Adobe Illustrator 24.2.0, SVG Export Plug-In . SVG Version: 6.00 Build 0)  -->
<svg version="1.1" id="Layer_1" xmlns="http://www.w3.org/2000/svg" xmlns:xlink="http://www.w3.org/1999/xlink" x="0px" y="0px"
	 viewBox="0 0 30 33.9" style="enable-background:new 0 0 30 33.9;" xml:space="preserve">
<style type="text/css">
	.st0{fill:#FFD85F;}
	.st1{fill:#3BB4E7;}
	.st2{fill:#ED5C68;}
	.st3{fill:#308BC5;}
	.st4{fill:#D5465F;}
</style>
<g id="_42300-1590787413-contentful-logo-wordmark-dark-1b5def" transform="translate(-0.459 -0.322)">
	<g id="Group_2" transform="translate(0.459 0.322)">
		<path id="Path_4" class="st0" d="M10.2,23.6c-1.8-1.8-2.8-4.2-2.7-6.7c0-2.5,1-4.9,2.8-6.7c1.5-1.4,1.5-3.8,0-5.3S6.5,3.5,5,4.9
			c0,0,0,0,0,0c-6.6,6.6-6.7,17.3-0.1,23.9c1.4,1.5,3.8,1.5,5.3,0.1C11.7,27.5,11.7,25.2,10.2,23.6C10.2,23.7,10.2,23.6,10.2,23.6z"
			/>
		<path id="Path_5" class="st1" d="M10.2,10.2C12,8.5,14.4,7.5,17,7.5c2.5,0,4.9,1,6.7,2.8c1.5,1.5,3.8,1.5,5.3,0
			c1.5-1.5,1.5-3.8,0-5.3C22.4-1.6,11.7-1.7,5.1,4.9c0,0,0,0-0.1,0.1c-1.4,1.5-1.4,3.8,0.1,5.3C6.5,11.6,8.8,11.6,10.2,10.2
			L10.2,10.2z"/>
		<path id="Path_6" class="st2" d="M23.6,23.7c-1.8,1.8-4.2,2.8-6.7,2.7c-2.5,0-4.9-1-6.7-2.8c-1.4-1.5-3.8-1.5-5.3-0.1
			c-1.5,1.4-1.5,3.8-0.1,5.3c0,0,0,0.1,0.1,0.1c6.6,6.6,17.3,6.7,23.9,0.1c0,0,0,0,0,0c1.5-1.5,1.5-3.8,0-5.3
			C27.4,22.2,25.1,22.2,23.6,23.7z"/>
		<path id="Path_7" class="st3" d="M10.2,10.2c-1.5,1.5-3.8,1.4-5.3,0S3.5,6.4,5,4.9s3.8-1.4,5.3,0c0,0,0,0,0,0
			C11.7,6.4,11.7,8.8,10.2,10.2z"/>
		<path id="Path_8" class="st4" d="M10.2,28.9c-1.5,1.5-3.8,1.4-5.3,0c-1.5-1.5-1.4-3.8,0-5.3c1.5-1.5,3.8-1.4,5.3,0c0,0,0,0,0,0
			C11.6,25.1,11.6,27.4,10.2,28.9z"/>
	</g>
</g>
</svg>
